<mxfile host="65bd71144e">
    <diagram name="Page-1" id="TqO0XknMDxeJT55NkYOL">
        <mxGraphModel dx="737" dy="836" grid="1" gridSize="10" guides="1" tooltips="1" connect="1" arrows="1" fold="1" page="1" pageScale="1" pageWidth="850" pageHeight="1100" math="1" shadow="0">
            <root>
                <mxCell id="0"/>
                <mxCell id="1" parent="0"/>
                <mxCell id="89ghsDv7PfAujkezo9FC-12" style="edgeStyle=orthogonalEdgeStyle;rounded=0;orthogonalLoop=1;jettySize=auto;html=1;entryX=0;entryY=0.5;entryDx=0;entryDy=0;" parent="1" source="89ghsDv7PfAujkezo9FC-1" target="89ghsDv7PfAujkezo9FC-7" edge="1">
                    <mxGeometry relative="1" as="geometry">
                        <mxPoint x="240" y="120" as="targetPoint"/>
                    </mxGeometry>
                </mxCell>
                <mxCell id="89ghsDv7PfAujkezo9FC-1" value="$$q_0$$" style="ellipse;whiteSpace=wrap;html=1;fontSize=18;" parent="1" vertex="1">
                    <mxGeometry x="80" y="80" width="80" height="80" as="geometry"/>
                </mxCell>
                <mxCell id="99" style="edgeStyle=none;html=1;" parent="1" source="89ghsDv7PfAujkezo9FC-2" edge="1">
                    <mxGeometry relative="1" as="geometry">
                        <mxPoint x="240" y="240" as="targetPoint"/>
                    </mxGeometry>
                </mxCell>
                <mxCell id="89ghsDv7PfAujkezo9FC-2" value="$$q_1$$" style="ellipse;whiteSpace=wrap;html=1;fontSize=18;" parent="1" vertex="1">
                    <mxGeometry x="80" y="200" width="80" height="80" as="geometry"/>
                </mxCell>
                <mxCell id="104" style="edgeStyle=none;html=1;" parent="1" source="89ghsDv7PfAujkezo9FC-3" edge="1">
                    <mxGeometry relative="1" as="geometry">
                        <mxPoint x="240" y="360" as="targetPoint"/>
                    </mxGeometry>
                </mxCell>
                <mxCell id="89ghsDv7PfAujkezo9FC-3" value="$$q_2$$" style="ellipse;whiteSpace=wrap;html=1;fontSize=18;" parent="1" vertex="1">
                    <mxGeometry x="80" y="320" width="80" height="80" as="geometry"/>
                </mxCell>
                <mxCell id="89ghsDv7PfAujkezo9FC-7" value="$$q_0$$" style="ellipse;whiteSpace=wrap;html=1;fontSize=18;" parent="1" vertex="1">
                    <mxGeometry x="320" y="80" width="80" height="80" as="geometry"/>
                </mxCell>
                <mxCell id="89ghsDv7PfAujkezo9FC-8" value="$$q_1$$" style="ellipse;whiteSpace=wrap;html=1;fontSize=18;" parent="1" vertex="1">
                    <mxGeometry x="320" y="200" width="80" height="80" as="geometry"/>
                </mxCell>
                <mxCell id="89ghsDv7PfAujkezo9FC-9" value="$$q_2$$" style="ellipse;whiteSpace=wrap;html=1;fontSize=18;" parent="1" vertex="1">
                    <mxGeometry x="320" y="320" width="80" height="80" as="geometry"/>
                </mxCell>
                <mxCell id="95" value="" style="rounded=0;whiteSpace=wrap;html=1;" parent="1" vertex="1">
                    <mxGeometry x="200" y="200" width="80" height="80" as="geometry"/>
                </mxCell>
                <mxCell id="96" style="edgeStyle=orthogonalEdgeStyle;rounded=0;orthogonalLoop=1;jettySize=auto;html=1;" parent="1" source="95" edge="1">
                    <mxGeometry relative="1" as="geometry">
                        <mxPoint x="320" y="240" as="targetPoint"/>
                    </mxGeometry>
                </mxCell>
                <mxCell id="97" value="" style="endArrow=none;dashed=1;html=1;dashPattern=1 3;strokeWidth=2;rounded=0;entryX=1;entryY=0.5;entryDx=0;entryDy=0;" parent="1" target="95" edge="1">
                    <mxGeometry width="50" height="50" relative="1" as="geometry">
                        <mxPoint x="200" y="240" as="sourcePoint"/>
                        <mxPoint x="250" y="190" as="targetPoint"/>
                    </mxGeometry>
                </mxCell>
                <mxCell id="98" value="$$X$$" style="whiteSpace=wrap;html=1;aspect=fixed;fontSize=18;" parent="1" vertex="1">
                    <mxGeometry x="220" y="220" width="40" height="40" as="geometry"/>
                </mxCell>
                <mxCell id="100" value="" style="rounded=0;whiteSpace=wrap;html=1;" parent="1" vertex="1">
                    <mxGeometry x="200" y="320" width="80" height="80" as="geometry"/>
                </mxCell>
                <mxCell id="101" style="edgeStyle=orthogonalEdgeStyle;rounded=0;orthogonalLoop=1;jettySize=auto;html=1;" parent="1" source="100" edge="1">
                    <mxGeometry relative="1" as="geometry">
                        <mxPoint x="320" y="360" as="targetPoint"/>
                    </mxGeometry>
                </mxCell>
                <mxCell id="102" value="" style="endArrow=none;dashed=1;html=1;dashPattern=1 3;strokeWidth=2;rounded=0;entryX=1;entryY=0.5;entryDx=0;entryDy=0;" parent="1" target="100" edge="1">
                    <mxGeometry width="50" height="50" relative="1" as="geometry">
                        <mxPoint x="200" y="360" as="sourcePoint"/>
                        <mxPoint x="250" y="310" as="targetPoint"/>
                    </mxGeometry>
                </mxCell>
                <mxCell id="103" value="$$X$$" style="whiteSpace=wrap;html=1;aspect=fixed;fontSize=18;" parent="1" vertex="1">
                    <mxGeometry x="220" y="340" width="40" height="40" as="geometry"/>
                </mxCell>
            </root>
        </mxGraphModel>
    </diagram>
</mxfile>